<?xml version="1.0" encoding="UTF-8"?>
<svg width="80px" height="40px" viewBox="0 0 80 40" version="1.1" xmlns="http://www.w3.org/2000/svg" xmlns:xlink="http://www.w3.org/1999/xlink">
    <!-- Generator: Sketch 50.2 (55047) - http://www.bohemiancoding.com/sketch -->
    <title>view</title>
    <desc>Created with Sketch.</desc>
    <defs></defs>
    <g id="Page-1" stroke="none" stroke-width="1" fill="none" fill-rule="evenodd">
        <g id="view" fill="#FFFFFF" fill-rule="nonzero">
            <path d="M40,27.5 C44.1,27.5 47.5,24.1 47.5,20 C47.5,15.9 44.1,12.5 40,12.5 C35.9,12.5 32.5,15.9 32.5,20 C32.5,24.1 35.9,27.5 40,27.5 Z M40,14 C43.3,14 46,16.7 46,20 C46,23.3 43.3,26 40,26 C36.7,26 34,23.3 34,20 C34,16.7 36.7,14 40,14 Z" id="Shape"></path>
            <path d="M40,32.5 C46.9,32.5 52.5,26.9 52.5,20 C52.5,13.1 46.9,7.5 40,7.5 C33.1,7.5 27.5,13.1 27.5,20 C27.5,26.9 33.1,32.5 40,32.5 Z M40,9.5 C45.8,9.5 50.5,14.2 50.5,20 C50.5,25.8 45.8,30.5 40,30.5 C34.2,30.5 29.5,25.8 29.5,20 C29.5,14.2 34.2,9.5 40,9.5 Z" id="Shape"></path>
            <path d="M40.2,39.4 C55.5,39.4 69.4,32 79.8,20 C69.3,8 55.4,0.6 40.2,0.6 C24.8,0.6 10.7,7.7 0.2,20 C10.7,32.3 24.7,39.4 40.2,39.4 Z M40,4.5 C48.5,4.5 55.5,11.5 55.5,20 C55.5,28.5 48.5,35.5 40,35.5 C31.5,35.5 24.5,28.5 24.5,20 C24.5,11.5 31.5,4.5 40,4.5 Z" id="Shape"></path>
        </g>
    </g>
</svg>
